<svg width="61" height="62" viewBox="0 0 61 62" fill="none" xmlns="http://www.w3.org/2000/svg">
<path d="M54.1462 42.066V47.4877C54.1462 51.4801 50.8702 54.7166 46.8291 54.7166H41.7072M5.85352 42.066V47.4877C5.85352 51.4801 9.12951 54.7166 13.1706 54.7166H17.9267M5.85352 17.8493V13.512C5.85352 9.5196 9.12951 6.28308 13.1706 6.28308H17.9267M54.1462 17.8493V13.512C54.1462 9.5196 50.8702 6.28308 46.8291 6.28308H41.7072M5.85352 34.5661V29.9577V25.3493M54.1462 34.5661V29.9577V25.3493M33.9328 6.28308H29.0852H24.9694M33.9328 54.7166H29.0852H24.9694M16.8291 38.813L25.6714 21.6147C25.719 21.5221 25.8152 21.4637 25.9204 21.4637C26.0285 21.4637 26.1268 21.5253 26.173 21.6218L34.3901 38.813M21.2194 34.4757H29.2681M42.4389 38.813V21.4637M54.1462 41.7046H59.2681M18.2925 54.7166V60.4997" stroke="white" stroke-width="3" stroke-linecap="round"/>
<path d="M5.85366 41.705H0" stroke="white" stroke-linecap="round" stroke-linejoin="round"/>
<path d="M18.2925 6.28323V0.500122" stroke="white" stroke-linecap="round"/>
<path d="M54.1465 17.8496H59.2684" stroke="white" stroke-linecap="round" stroke-linejoin="round"/>
<path d="M41.7075 54.7169V60.5" stroke="white" stroke-linecap="round"/>
<path d="M5.85366 17.8496H0" stroke="white" stroke-linecap="round" stroke-linejoin="round"/>
<path d="M41.7075 6.28323V0.500122" stroke="white" stroke-linecap="round"/>
<path d="M5.85352 30.5L-0.00014019 30.5" stroke="white" stroke-linecap="round"/>
<path d="M60 30.5L54.1463 30.5" stroke="white" stroke-linecap="round"/>
<path d="M29.6343 6.28308L29.6343 0.499975" stroke="white" stroke-linecap="round"/>
<path d="M29.6343 60.4999L29.6343 54.7168" stroke="white" stroke-linecap="round"/>
</svg>
