<svg width="48" height="54" viewBox="0 0 48 54" fill="none" xmlns="http://www.w3.org/2000/svg">
<path d="M45.8733 35.7793L30.6677 27L45.8733 18.2207C46.6386 17.7785 47.197 17.0504 47.4256 16.1966C47.6542 15.3427 47.5344 14.4331 47.0926 13.6676C46.6507 12.902 45.9229 12.3433 45.0692 12.1143C44.2155 11.8852 43.3058 12.0045 42.54 12.446L27.3333 21.2259V3.66671C27.3333 2.78265 26.9821 1.93481 26.357 1.30969C25.7319 0.684564 24.8841 0.333374 24 0.333374C23.1159 0.333374 22.2681 0.684564 21.643 1.30969C21.0179 1.93481 20.6667 2.78265 20.6667 3.66671V21.2259L5.46 12.4459C4.69426 12.0044 3.78453 11.8851 2.93082 12.1142C2.07712 12.3432 1.34933 12.9019 0.907446 13.6675C0.465566 14.433 0.345773 15.3426 0.574404 16.1965C0.803035 17.0503 1.36138 17.7784 2.12667 18.2206L17.3323 27L2.12667 35.7793C1.36138 36.2216 0.803035 36.9497 0.574404 37.8035C0.345773 38.6573 0.465566 39.567 0.907446 40.3325C1.34933 41.098 2.07712 41.6568 2.93082 41.8858C3.78453 42.1149 4.69426 41.9956 5.46 41.5541L20.6667 32.7742V50.3334C20.6667 51.2174 21.0179 52.0653 21.643 52.6904C22.2681 53.3155 23.1159 53.6667 24 53.6667C24.8841 53.6667 25.7319 53.3155 26.357 52.6904C26.9821 52.0653 27.3333 51.2174 27.3333 50.3334V32.7742L42.54 41.5542C43.3058 41.9957 44.2155 42.115 45.0692 41.8859C45.9229 41.6569 46.6507 41.0981 47.0926 40.3326C47.5344 39.5671 47.6542 38.6574 47.4256 37.8036C47.197 36.9498 46.6386 36.2216 45.8733 35.7793Z" fill="#EABC4D"/>
</svg>
