<svg width="30" height="30" viewBox="0 0 30 30" fill="none" xmlns="http://www.w3.org/2000/svg">
<path d="M14.6668 0.416626C11.7825 0.416626 8.96299 1.27192 6.56477 2.87436C4.16655 4.4768 2.29737 6.7544 1.19359 9.41916C0.0898148 12.0839 -0.198984 15.0161 0.363717 17.845C0.926418 20.6739 2.31535 23.2724 4.35486 25.3119C6.39438 27.3514 8.99288 28.7404 11.8218 29.3031C14.6507 29.8658 17.5829 29.577 20.2476 28.4732C22.9124 27.3694 25.19 25.5002 26.7924 23.102C28.3949 20.7038 29.2502 17.8843 29.2502 15C29.2459 11.1335 27.708 7.42671 24.9741 4.69274C22.2401 1.95876 18.5333 0.420926 14.6668 0.416626ZM14.6668 26.6666C12.3594 26.6666 10.1038 25.9824 8.18518 24.7004C6.26661 23.4185 4.77126 21.5964 3.88824 19.4646C3.00522 17.3328 2.77418 14.987 3.22434 12.7239C3.6745 10.4608 4.78564 8.38199 6.41726 6.75038C8.04887 5.11877 10.1277 4.00763 12.3908 3.55746C14.6539 3.1073 16.9997 3.33834 19.1315 4.22137C21.2633 5.10439 23.0854 6.59973 24.3673 8.51831C25.6493 10.4369 26.3335 12.6925 26.3335 15C26.33 18.0931 25.0997 21.0585 22.9125 23.2456C20.7253 25.4328 17.7599 26.6631 14.6668 26.6666ZM17.7266 11.5492L16.1252 12.4742V7.70829C16.1252 7.32152 15.9715 6.95059 15.698 6.6771C15.4245 6.4036 15.0536 6.24996 14.6668 6.24996C14.2801 6.24996 13.9091 6.4036 13.6356 6.6771C13.3621 6.95059 13.2085 7.32152 13.2085 7.70829V15C13.2086 15.2559 13.276 15.5074 13.404 15.729C13.532 15.9507 13.7161 16.1348 13.9377 16.2628C14.1594 16.3908 14.4108 16.4582 14.6668 16.4583C14.9228 16.4584 15.1743 16.3911 15.396 16.2632L19.185 14.0757C19.3509 13.98 19.4965 13.8525 19.6132 13.7006C19.7299 13.5486 19.8155 13.3751 19.8652 13.1901C19.9148 13.005 19.9275 12.812 19.9026 12.622C19.8776 12.4321 19.8154 12.2489 19.7197 12.0829C19.6239 11.917 19.4963 11.7715 19.3443 11.6549C19.1923 11.5383 19.0188 11.4527 18.8337 11.4032C18.6486 11.3536 18.4556 11.341 18.2656 11.3661C18.0757 11.3911 17.8925 11.4534 17.7266 11.5492Z" fill="#EFEBE7"/>
</svg>
