<svg width="100" height="100" viewBox="0 0 100 100" fill="none" xmlns="http://www.w3.org/2000/svg">
<path d="M78.125 23.4375L90.625 42.1875L50 85.9375L9.375 42.1875L21.875 23.4375H78.125Z" stroke="white" stroke-width="3" stroke-linecap="round" stroke-linejoin="round"/>
<path d="M18.75 42.1875H82.8125" stroke="white" stroke-width="0.75" stroke-linecap="round" stroke-linejoin="round"/>
<path d="M28.125 31.25L35.9375 42.1875L50 28.125L64.0625 42.1875L71.875 31.25" stroke="white" stroke-width="0.75" stroke-linecap="round" stroke-linejoin="round"/>
<path d="M53.5156 75L64.0625 42.1875" stroke="white" stroke-width="0.75" stroke-linecap="round" stroke-linejoin="round"/>
<path d="M35.9375 42.1875L46.4844 75" stroke="white" stroke-width="0.75" stroke-linecap="round" stroke-linejoin="round"/>
<path d="M73.4375 4.6875V6.25" stroke="white" stroke-width="0.75" stroke-linecap="round" stroke-linejoin="round"/>
<path d="M78.125 9.375H76.5625" stroke="white" stroke-width="0.75" stroke-linecap="round" stroke-linejoin="round"/>
<path d="M73.4375 14.0625V12.5" stroke="white" stroke-width="0.75" stroke-linecap="round" stroke-linejoin="round"/>
<path d="M68.75 9.375H70.3125" stroke="white" stroke-width="0.75" stroke-linecap="round" stroke-linejoin="round"/>
<path d="M25 77.75L23.8906 78.8438" stroke="white" stroke-width="0.75" stroke-linecap="round" stroke-linejoin="round"/>
<path d="M25 84.375L23.8906 83.2656" stroke="white" stroke-width="0.75" stroke-linecap="round" stroke-linejoin="round"/>
<path d="M18.375 84.375L19.4688 83.2656" stroke="white" stroke-width="0.75" stroke-linecap="round" stroke-linejoin="round"/>
<path d="M18.375 77.75L19.4688 78.8438" stroke="white" stroke-width="0.75" stroke-linecap="round" stroke-linejoin="round"/>
<path d="M28.9062 15.625C29.3377 15.625 29.6875 15.2752 29.6875 14.8438C29.6875 14.4123 29.3377 14.0625 28.9062 14.0625C28.4748 14.0625 28.125 14.4123 28.125 14.8438C28.125 15.2752 28.4748 15.625 28.9062 15.625Z" stroke="white" stroke-width="0.75" stroke-linecap="round" stroke-linejoin="round"/>
<path d="M22.6562 10.9375C23.0877 10.9375 23.4375 10.5877 23.4375 10.1562C23.4375 9.72478 23.0877 9.375 22.6562 9.375C22.2248 9.375 21.875 9.72478 21.875 10.1562C21.875 10.5877 22.2248 10.9375 22.6562 10.9375Z" stroke="white" stroke-width="0.75" stroke-linecap="round" stroke-linejoin="round"/>
<path d="M33.5938 7.8125C34.0252 7.8125 34.375 7.46272 34.375 7.03125C34.375 6.59978 34.0252 6.25 33.5938 6.25C33.1623 6.25 32.8125 6.59978 32.8125 7.03125C32.8125 7.46272 33.1623 7.8125 33.5938 7.8125Z" stroke="white" stroke-width="0.75" stroke-linecap="round" stroke-linejoin="round"/>
<path d="M78.125 68.75V70.3125" stroke="white" stroke-width="0.75" stroke-linecap="round" stroke-linejoin="round"/>
<path d="M80.8281 73.4375L79.4844 72.6562" stroke="white" stroke-width="0.75" stroke-linecap="round" stroke-linejoin="round"/>
<path d="M75.4219 73.4375L76.7656 72.6562" stroke="white" stroke-width="0.75" stroke-linecap="round" stroke-linejoin="round"/>
</svg>
