<svg width="29" height="29" viewBox="0 0 29 29" fill="none" xmlns="http://www.w3.org/2000/svg">
<path d="M4.76946 21.996C4.37893 22.3865 4.37893 23.0197 4.76946 23.4102C5.15998 23.8008 5.79315 23.8008 6.18367 23.4102L4.76946 21.996ZM9.57812 18.6016L10.2852 17.8945C9.89471 17.5039 9.26154 17.5039 8.87102 17.8945L9.57812 18.6016ZM12.8594 21.8828L12.1523 22.5899C12.5428 22.9804 13.176 22.9804 13.5665 22.5899L12.8594 21.8828ZM20.2422 14.5L20.9493 13.7929C20.5588 13.4024 19.9256 13.4024 19.5351 13.7929L20.2422 14.5ZM25.2773 20.9493C25.6678 21.3398 26.301 21.3398 26.6915 20.9493C27.082 20.5588 27.082 19.9256 26.6915 19.5351L25.2773 20.9493ZM6.18367 23.4102L10.2852 19.3087L8.87102 17.8945L4.76946 21.996L6.18367 23.4102ZM8.87102 19.3087L12.1523 22.5899L13.5665 21.1757L10.2852 17.8945L8.87102 19.3087ZM13.5665 22.5899L20.9493 15.2071L19.5351 13.7929L12.1523 21.1757L13.5665 22.5899ZM19.5351 15.2071L25.2773 20.9493L26.6915 19.5351L20.9493 13.7929L19.5351 15.2071ZM14.5 26.625C7.80355 26.625 2.375 21.1965 2.375 14.5H0.375C0.375 22.301 6.69898 28.625 14.5 28.625V26.625ZM26.625 14.5C26.625 21.1965 21.1965 26.625 14.5 26.625V28.625C22.301 28.625 28.625 22.301 28.625 14.5H26.625ZM14.5 2.375C21.1965 2.375 26.625 7.80355 26.625 14.5H28.625C28.625 6.69898 22.301 0.375 14.5 0.375V2.375ZM14.5 0.375C6.69898 0.375 0.375 6.69898 0.375 14.5H2.375C2.375 7.80355 7.80355 2.375 14.5 2.375V0.375ZM11.8594 10.3984C11.8594 11.2053 11.2053 11.8594 10.3984 11.8594V13.8594C12.3099 13.8594 13.8594 12.3099 13.8594 10.3984H11.8594ZM10.3984 11.8594C9.59158 11.8594 8.9375 11.2053 8.9375 10.3984H6.9375C6.9375 12.3099 8.48701 13.8594 10.3984 13.8594V11.8594ZM8.9375 10.3984C8.9375 9.59158 9.59158 8.9375 10.3984 8.9375V6.9375C8.48701 6.9375 6.9375 8.48701 6.9375 10.3984H8.9375ZM10.3984 8.9375C11.2053 8.9375 11.8594 9.59158 11.8594 10.3984H13.8594C13.8594 8.48701 12.3099 6.9375 10.3984 6.9375V8.9375Z" fill="#EFEBE7"/>
</svg>
