<svg width="20" height="20" viewBox="0 0 20 20" fill="none" xmlns="http://www.w3.org/2000/svg">
<g clip-path="url(#clip0_2748_2553)">
<path d="M18.75 9.0625C18.2324 9.0625 17.8125 9.48212 17.8125 10V17.5C17.8125 17.6694 17.6697 17.8125 17.5 17.8125H2.5C2.33032 17.8125 2.1875 17.6694 2.1875 17.5V2.5C2.1875 2.33063 2.33032 2.1875 2.5 2.1875H10C10.5176 2.1875 10.9375 1.76788 10.9375 1.25C10.9375 0.732119 10.5176 0.3125 10 0.3125H2.5C1.29394 0.3125 0.3125 1.29394 0.3125 2.5V17.5C0.3125 18.7061 1.29394 19.6875 2.5 19.6875H17.5C18.7061 19.6875 19.6875 18.7061 19.6875 17.5V10C19.6875 9.48212 19.2676 9.0625 18.75 9.0625Z" fill="#EFEBE7"/>
<path d="M19.681 1.2064C19.6632 0.7148 19.2351 0.322762 18.75 0.3125H13.7231C12.4926 0.333594 12.4894 2.16606 13.7232 2.1875H16.4867L9.66614 9.00787C9.29993 9.37378 9.29993 9.96735 9.66614 10.3336C10.0324 10.6998 10.6256 10.6998 10.9918 10.3336L17.8125 3.51318V6.27686C17.8321 7.50683 19.6669 7.51064 19.6875 6.27682V1.25C19.6875 1.23497 19.6817 1.22131 19.681 1.2064Z" fill="#EFEBE7"/>
</g>
<defs>
<clipPath id="clip0_2748_2553">
<rect width="20" height="20" fill="white"/>
</clipPath>
</defs>
</svg>
