<svg width="73" height="68" viewBox="0 0 73 68" fill="none" xmlns="http://www.w3.org/2000/svg">
<path d="M71.6499 33.6001L64.4277 25.2668C64.0914 24.8739 63.6636 24.556 63.1759 24.3367C62.6883 24.1175 62.1534 24.0024 61.611 24.0001H39.9444V4.00008C39.9444 3.11603 39.5639 2.26818 38.8867 1.64306C38.2095 1.01794 37.291 0.666748 36.3333 0.666748C35.3755 0.666748 34.457 1.01794 33.7798 1.64306C33.1026 2.26818 32.7222 3.11603 32.7222 4.00008V7.33342H11.0555C10.5131 7.33572 9.9782 7.45079 9.49058 7.67008C9.00295 7.88937 8.57511 8.20724 8.23882 8.60008L1.0166 16.9334C0.512814 17.5219 0.23877 18.25 0.23877 19.0001C0.23877 19.7501 0.512814 20.4783 1.0166 21.0667L8.23882 29.4001C8.57511 29.7929 9.00295 30.1108 9.49058 30.3301C9.9782 30.5494 10.5131 30.6644 11.0555 30.6667H32.7222V60.6668H25.4999C24.5422 60.6668 23.6237 61.0179 22.9465 61.6431C22.2693 62.2682 21.8888 63.116 21.8888 64.0001C21.8888 64.8841 22.2693 65.732 22.9465 66.3571C23.6237 66.9822 24.5422 67.3334 25.4999 67.3334H47.1666C48.1243 67.3334 49.0428 66.9822 49.72 66.3571C50.3973 65.732 50.7777 64.8841 50.7777 64.0001C50.7777 63.116 50.3973 62.2682 49.72 61.6431C49.0428 61.0179 48.1243 60.6668 47.1666 60.6668H39.9444V47.3334H61.611C62.1534 47.3311 62.6883 47.216 63.1759 46.9967C63.6636 46.7775 64.0914 46.4596 64.4277 46.0667L71.6499 37.7334C72.1537 37.1449 72.4277 36.4168 72.4277 35.6667C72.4277 34.9167 72.1537 34.1886 71.6499 33.6001ZM32.7222 24.0001H12.7888L8.45549 19.0001L12.7888 14.0001H32.7222V24.0001ZM59.8777 40.6667H39.9444V30.6667H59.8777L64.211 35.6667L59.8777 40.6667Z" fill="white"/>
</svg>
